<?xml version="1.0" encoding="UTF-8" standalone="no"?>
<svg
   xmlns:dc="http://purl.org/dc/elements/1.1/"
   xmlns:cc="http://creativecommons.org/ns#"
   xmlns:rdf="http://www.w3.org/1999/02/22-rdf-syntax-ns#"
   xmlns:svg="http://www.w3.org/2000/svg"
   xmlns="http://www.w3.org/2000/svg"
   xmlns:sodipodi="http://sodipodi.sourceforge.net/DTD/sodipodi-0.dtd"
   xmlns:inkscape="http://www.inkscape.org/namespaces/inkscape"
   width="815.43579"
   height="500"
   viewBox="0 0 652.34863 400"
   version="1.1"
   id="svg2"
   inkscape:version="0.48.4 r9939"
   sodipodi:docname="cia-sustentavel.svg">
  <metadata
     id="metadata43">
    <rdf:RDF>
      <cc:Work
         rdf:about="">
        <dc:format>image/svg+xml</dc:format>
        <dc:type
           rdf:resource="http://purl.org/dc/dcmitype/StillImage" />
      </cc:Work>
    </rdf:RDF>
  </metadata>
  <defs
     id="defs41" />
  <sodipodi:namedview
     pagecolor="#ffffff"
     bordercolor="#666666"
     borderopacity="1"
     objecttolerance="10"
     gridtolerance="10"
     guidetolerance="10"
     inkscape:pageopacity="0"
     inkscape:pageshadow="2"
     inkscape:window-width="1366"
     inkscape:window-height="705"
     id="namedview39"
     showgrid="false"
     inkscape:zoom="0.32265019"
     inkscape:cx="131.80863"
     inkscape:cy="100.95581"
     inkscape:window-x="-8"
     inkscape:window-y="-8"
     inkscape:window-maximized="1"
     inkscape:current-layer="svg2"
     fit-margin-top="0"
     fit-margin-left="0"
     fit-margin-right="0"
     fit-margin-bottom="0" />
  <g
     id="#ffc905ff"
     transform="matrix(2.4433449,0,0,2.4433449,-0.02443711,0)">
    <path
       d="m 83.75,0 0.01,0 c 5.18,2.66 10.62,4.72 15.91,7.14 3.87,1.89 8.39,1.04 12.35,2.7 9.9,3.43 16.93,13.61 16.51,24.1 -0.02,11.17 -8.51,21.55 -19.41,23.85 C 99.52,60.14 88.84,55.93 83.28,47.8 77.43,39.68 77.22,28.05 82.78,19.73 86.29,14.18 92.1,10.47 98.39,8.82 93.94,6.72 89.41,4.8 84.85,2.96 80.42,14.37 75.51,25.61 71.26,37.07 c 4.43,9.27 9.88,18.07 14.65,27.18 12.08,-1.46 24.2,-2.45 36.29,-3.85 5.53,-10.56 11.03,-21.13 16.7,-31.61 -6.93,-8.75 -14.14,-17.27 -21,-26.07 0.52,-0.08 1.54,-0.23 2.06,-0.31 7.28,8.45 14.03,17.38 21.22,25.92 -5.76,11.43 -11.86,22.7 -17.83,34.02 -12.84,1.29 -25.69,2.5 -38.5,4.03 C 79.95,57.52 75.12,48.64 70.21,39.79 69.78,38.73 68.79,37.59 69.33,36.39 73.95,24.19 79.31,12.27 83.75,0 z"
       id="path5"
       inkscape:connector-curvature="0"
       style="fill:#ffc905" />
  </g>
  <g
     id="#78a22fff"
     transform="matrix(2.4433449,0,0,2.4433449,-0.02443711,0)">
    <path
       d="m 0.01,28.03 c 20.6,1.78 41.16,4.08 61.77,5.87 -0.13,1.08 -0.77,2.28 -0.1,3.32 2.76,5.94 5.88,11.71 8.49,17.72 -14.84,0.82 -29.67,1.56 -44.5,2.47 3.02,26.75 5.6,53.55 8.56,80.32 16.31,-0.3 32.64,-0.39 48.95,-0.89 -0.01,5.62 0.08,11.25 -0.06,16.87 -22.66,3.26 -45.28,6.86 -67.96,10 C 10.72,122.42 6.02,81.16 1.54,39.88 1.21,35.91 0.5,31.98 0.01,28.03 z"
       id="path8"
       inkscape:connector-curvature="0"
       style="fill:#78a22f" />
    <path
       d="m 142.05,41.15 c 12.54,-0.73 25.1,-1.1 37.65,-1.76 -1.75,27.02 -3.64,54.02 -5.26,81.04 -1.81,0.18 -3.63,0.36 -5.45,0.53 -1.75,-7.13 -3.41,-14.29 -5.35,-21.37 -7.62,-0.7 -15.23,-1.47 -22.84,-2.26 -2.8,8.47 -5.62,16.93 -8.47,25.39 -2.31,-0.55 -4.61,-1.11 -6.93,-1.62 0.77,-17.37 1.78,-34.73 2.48,-52.1 0,-1.67 0.81,-3.16 1.58,-4.59 4.26,-7.72 8.34,-15.54 12.59,-23.26 m -1.9,49.18 c 7.86,-0.42 15.73,-0.75 23.59,-1.07 -2.34,-10.3 -4.52,-20.64 -6.85,-30.95 -2.89,-0.09 -6.18,-1.36 -8.84,-0.43 -2.76,10.78 -5.3,21.63 -7.9,32.45 z"
       id="path10"
       inkscape:connector-curvature="0"
       style="fill:#78a22f" />
    <path
       d="m 97.65,71.68 c 5.64,-0.21 11.28,-0.54 16.93,-0.55 0.96,15.78 1.87,31.56 2.87,47.34 -7.35,-0.19 -14.69,-0.75 -22.05,-1 0.77,-15.26 1.53,-30.53 2.25,-45.79 z"
       id="path12"
       inkscape:connector-curvature="0"
       style="fill:#78a22f" />
  </g>
  <g
     id="#f9f9f9f9"
     style="fill:#000000;fill-opacity:1"
     transform="matrix(2.4433449,0,0,2.4433449,-0.02443711,0)">
    <path
       d="m 207.84,134.37 c 0.96,-1.5 1.97,-2.96 3.01,-4.41 0.74,0.02 2.22,0.05 2.96,0.07 -1.81,1.69 -3.11,4.58 -5.97,4.34 z"
       id="path15"
       style="opacity:0.98000004;fill:#000000;fill-opacity:1"
       inkscape:connector-curvature="0" />
    <path
       d="m 95.5,140.03 c 0.05,-5.24 8.26,-5.97 9.97,-1.37 -0.7,2.44 -2.72,0.1 -3.66,-0.82 -0.82,-0.04 -2.47,-0.11 -3.29,-0.15 -0.51,1.35 -1.53,2.87 -0.45,4.25 2.51,3.13 7.75,4.46 7.98,9.07 0.27,2.7 -2.02,4.33 -4.02,5.58 -3.41,0.53 -6.37,-1.24 -8.13,-4.1 0.43,-0.26 1.29,-0.8 1.72,-1.06 1.33,1.12 2.37,3.39 4.43,3.09 2.31,0.25 4.68,-2.65 3.23,-4.74 -2.05,-3.7 -7.91,-4.88 -7.78,-9.75 z"
       id="path17"
       style="opacity:0.98000004;fill:#000000;fill-opacity:1"
       inkscape:connector-curvature="0" />
    <path
       d="m 110.21,136.04 c 0.51,-0.01 1.53,-0.05 2.04,-0.07 0.17,5.17 -0.33,10.4 0.24,15.54 0.53,3.03 4.03,2.9 6.4,3.12 1.06,-1.07 2.38,-2.1 2.45,-3.75 0.35,-4.93 0.08,-9.87 0.11,-14.8 0.52,-0.02 1.57,-0.04 2.09,-0.05 -0.27,5.39 0.44,10.85 -0.42,16.19 -1.43,5.93 -11.37,5.64 -12.52,-0.28 -0.82,-5.25 -0.14,-10.61 -0.39,-15.9 z"
       id="path19"
       style="opacity:0.98000004;fill:#000000;fill-opacity:1"
       inkscape:connector-curvature="0" />
    <path
       d="m 130.03,135.94 c 1.67,-0.11 3.34,-0.2 5.01,-0.26 1.24,1.36 3.73,2.65 1.65,4.52 -0.67,-0.6 -2.02,-1.81 -2.69,-2.42 -0.82,-0.01 -2.46,-0.04 -3.28,-0.05 -0.32,1.27 -1.47,2.71 -0.52,3.98 2.25,3.13 6.86,4.26 7.97,8.23 0.96,3.59 -2.58,7.11 -6.11,6.6 -2.83,0.2 -4.51,-2.31 -5.9,-4.34 0.63,-0.23 1.26,-0.45 1.89,-0.68 1.31,1.35 2.64,3.67 4.89,2.92 1.92,-0.12 3.66,-2.42 2.83,-4.26 -1.65,-3.29 -5.61,-4.49 -7.51,-7.57 -1.23,-2.38 -0.11,-5.04 1.77,-6.67 z"
       id="path21"
       style="opacity:0.98000004;fill:#000000;fill-opacity:1"
       inkscape:connector-curvature="0" />
    <path
       d="m 140.58,136.04 c 3.68,-0.12 7.37,-0.01 11.06,-0.04 0.58,3.08 -2.81,1.74 -4.64,2.02 0,6 0,11.99 0,17.98 -0.5,0 -1.5,0 -2,0 0,-5.99 0,-11.98 0,-17.97 -1.67,-0.32 -5.62,1.08 -4.42,-1.99 z"
       id="path23"
       style="opacity:0.98000004;fill:#000000;fill-opacity:1"
       inkscape:connector-curvature="0" />
    <path
       d="m 154.22,136.01 c 3.95,0.01 7.9,-0.11 11.85,0.12 -0.1,0.43 -0.28,1.28 -0.37,1.71 -3.15,0.34 -6.32,0.1 -9.47,0.18 0.02,2.07 0.03,4.15 0.06,6.23 3.17,-0.02 6.34,-0.03 9.51,0.01 l -0.07,1.99 c -3.16,0 -6.31,0 -9.47,0 -0.01,2.57 -0.01,5.14 -0.04,7.71 3.26,0.06 6.52,-0.02 9.78,0.13 -0.08,0.44 -0.23,1.33 -0.31,1.78 -3.81,0.3 -7.65,0.08 -11.47,0.12 0.02,-6.66 0.02,-13.32 0,-19.98 z"
       id="path25"
       style="opacity:0.98000004;fill:#000000;fill-opacity:1"
       inkscape:connector-curvature="0" />
    <path
       d="m 169.26,135.7 c 4.73,5.05 9.07,10.46 13.73,15.58 0.02,-5.09 0,-10.19 0.01,-15.28 0.5,0 1.5,0 2,0 -0.02,6.8 0.03,13.59 -0.02,20.39 -4.89,-4.9 -9.11,-10.43 -13.79,-15.53 0.12,5.05 0.04,10.11 0.06,15.16 -0.51,-0.01 -1.52,-0.03 -2.03,-0.05 0.04,-6.75 -0.03,-13.51 0.04,-20.27 z"
       id="path27"
       style="opacity:0.98000004;fill:#000000;fill-opacity:1"
       inkscape:connector-curvature="0" />
    <path
       d="m 188,136 c 3.67,0 7.33,0 11,0 0,0.49 0,1.48 0,1.98 -1.52,0.02 -3.03,0.07 -4.54,0.1 0.11,5.97 0.03,11.95 0.05,17.92 l -2.02,0 c -0.01,-6 0.04,-12 -0.04,-18 -1.48,0 -2.97,0.01 -4.45,0.02 0,-0.51 0,-1.52 0,-2.02 z"
       id="path29"
       style="opacity:0.98000004;fill:#000000;fill-opacity:1"
       inkscape:connector-curvature="0" />
    <path
       d="m 220.88,135.83 c 1.36,-0.15 2.25,0.37 2.68,1.56 2.09,4.66 4.03,9.39 6.14,14.05 2.39,-5.03 4.58,-10.14 6.71,-15.27 0.62,-0.07 1.85,-0.19 2.46,-0.26 -3.19,6.75 -5.64,13.87 -9.26,20.41 -2.99,-6.8 -5.84,-13.65 -8.73,-20.49 z"
       id="path31"
       style="opacity:0.98000004;fill:#000000;fill-opacity:1"
       inkscape:connector-curvature="0" />
    <path
       d="m 242.22,136.01 c 3.95,0 7.9,-0.11 11.84,0.11 -0.1,0.45 -0.32,1.33 -0.42,1.77 -3.13,0.25 -6.28,0.06 -9.41,0.13 0.02,2.07 0.03,4.15 0.06,6.23 3.18,-0.02 6.36,-0.04 9.55,0.03 l -0.13,1.98 c -3.15,-0.01 -6.3,-0.01 -9.45,-0.01 -0.01,2.58 -0.01,5.15 -0.03,7.72 3.14,0.08 6.29,-0.12 9.43,0.16 0.1,0.43 0.31,1.3 0.41,1.74 -3.94,0.23 -7.9,0.11 -11.84,0.13 0,-6.67 0.01,-13.33 -0.01,-19.99 z"
       id="path33"
       style="opacity:0.98000004;fill:#000000;fill-opacity:1"
       inkscape:connector-curvature="0" />
    <path
       d="m 257.2,136.07 c 0.51,-0.03 1.54,-0.08 2.05,-0.11 0,6.01 0.02,12.01 -0.01,18.02 2.58,0.02 5.17,0.02 7.76,0.02 0,0.5 0,1.5 0,2 -3.26,0 -6.52,0.01 -9.78,0 0.01,-6.65 0.05,-13.29 -0.02,-19.93 z"
       id="path35"
       style="opacity:0.98000004;fill:#000000;fill-opacity:1"
       inkscape:connector-curvature="0" />
    <path
       d="m 200.22,156.06 c 3.37,-6.72 6.37,-13.62 9.79,-20.31 3.26,6.75 6.36,13.58 9.49,20.4 -3.7,0.42 -3.68,-4.36 -5.36,-6.64 -2.84,0 -5.68,0.01 -8.51,-0.02 -1.05,2.08 -2,4.2 -2.91,6.34 -0.63,0.06 -1.87,0.17 -2.5,0.23 m 9.45,-14.85 c -1.12,2.06 -2.11,4.18 -3.16,6.27 2.19,0.01 4.39,0.02 6.58,0.03 -1.19,-1.95 -1.34,-5.42 -3.42,-6.3 z"
       id="path37"
       style="opacity:0.98000004;fill:#000000;fill-opacity:1"
       inkscape:connector-curvature="0" />
  </g>
</svg>
